<svg width="141" height="157" fill="none" xmlns="http://www.w3.org/2000/svg"><path d="M140.632 102.568c-3.6 5.9-7.7 11.4-12.3 16.5-19.9 22.1-48.4 36.3-80.2 37.1l-18.5-71.6 58.8-33.3 52.2 51.3Z" fill="url(#a)"/><path d="m26.932 4.568 5.9 10.2c2 .2 3.8 1.2 5 2.9 9.5-2.7 18.9.6 25.1 8.7l9.9 9.7 13.1-7.5c-.8-1.7-1.9-3.9-2.7-5.3-12.7-22.2-35.5-28.7-56.3-18.7Zm-19.9 61.9c5.6 9.7 13.6 16.5 23 19.7l-9.2-35.7c-3.7-9.6-1.8-19.2 5-26-.9-1.9-.9-4 0-5.9l-5.8-10.1c-19.3 13.4-25.1 37.1-13 58Z" fill="#080F2B"/><path d="M92.132 54.868c-2.9 10.4-10.6 19.3-22.1 26-14 8.1-28 9.5-40 5.3l-9.2-35.7 42.1-24.3 9.9 9.7-45.2 26.1c8.4 9.6 21.4 11.4 34.3 3.9 8.3-4.8 13.4-11.2 15.5-19.7.5-1.7.7-3.5.8-5l13.9 13.7Z" fill="#FFA300"/><defs><linearGradient id="a" x1="61.701" y1="70.809" x2="92.501" y2="126.001" gradientUnits="userSpaceOnUse"><stop stop-color="#FFA300" stop-opacity=".8"/><stop offset="1" stop-color="#FFA300" stop-opacity="0"/></linearGradient></defs></svg>