<svg xmlns="http://www.w3.org/2000/svg" xmlns:xlink="http://www.w3.org/1999/xlink" version="1.1" width="1000" height="1000" viewBox="0 0 1000 1000" xml:space="preserve">
<desc>Created with Fabric.js 3.5.0</desc>
<defs>
</defs>
<rect x="0" y="0" width="100%" height="100%" fill="rgba(255,255,255,0)"/>
<g transform="matrix(2.3448 0 0 2.3448 499.994 499.9964)" id="668139">
<path style="stroke: none; stroke-width: 1; stroke-dasharray: none; stroke-linecap: butt; stroke-dashoffset: 0; stroke-linejoin: miter; stroke-miterlimit: 4; is-custom-font: none; font-file-url: none; fill: rgb(59,153,252); fill-rule: nonzero; opacity: 1;" vector-effect="non-scaling-stroke" transform=" translate(-193.85, -118.8)" d="M 79.4 46.4 c 63.2 -61.9 165.7 -61.9 228.9 0 l 7.6 7.4 c 3.2 3.1 3.2 8.1 0 11.2 l -26 25.5 c -1.6 1.5 -4.1 1.5 -5.7 0 l -10.5 -10.3 c -44.1 -43.2 -115.6 -43.2 -159.7 0 l -11.2 11 c -1.6 1.5 -4.1 1.5 -5.7 0 L 71 65.8 c -3.2 -3.1 -3.2 -8.1 0 -11.2 L 79.4 46.4 z M 362.1 99.1 l 23.2 22.7 c 3.2 3.1 3.2 8.1 0 11.2 L 280.8 235.3 c -3.2 3.1 -8.3 3.1 -11.4 0 c 0 0 0 0 0 0 l -74.1 -72.6 c -0.8 -0.8 -2.1 -0.8 -2.9 0 c 0 0 0 0 0 0 l -74.1 72.6 c -3.2 3.1 -8.3 3.1 -11.4 0 c 0 0 0 0 0 0 L 2.4 133 c -3.2 -3.1 -3.2 -8.1 0 -11.2 l 23.2 -22.7 c 3.2 -3.1 8.3 -3.1 11.4 0 l 74.1 72.6 c 0.8 0.8 2.1 0.8 2.9 0 c 0 0 0 0 0 0 l 74.1 -72.6 c 3.2 -3.1 8.3 -3.1 11.4 0 c 0 0 0 0 0 0 l 74.1 72.6 c 0.8 0.8 2.1 0.8 2.9 0 l 74.1 -72.6 C 353.8 96 358.9 96 362.1 99.1 z" stroke-linecap="round"/>
</g>
</svg>